<svg xmlns="http://www.w3.org/2000/svg" width="101.941" height="103.756" viewBox="0 0 101.941 103.756">
    <defs>
        <style>.a{fill:currentColor;}</style>
    </defs>
    <g transform="translate(-132 -125.3)">
        <g transform="translate(132 125.3)">
            <path class="a" d="M205.352,139.242l-3.434-1.481a3.467,3.467,0,0,0-4.541,1.8l-5.109,11.865L151.079,133.69a9.576,9.576,0,1,0-9.5,10.758,9.454,9.454,0,0,0,4.693-1.232l44.637,19.231,3.752,1.62a3.457,3.457,0,0,0,4.154-1.135,3.147,3.147,0,0,0,.374-.665l1.537-3.558.028-.055,6.41-14.884A3.467,3.467,0,0,0,205.352,139.242Zm-63.771.817a4.513,4.513,0,0,1-.969-.1,5.183,5.183,0,0,1,.969-10.273,5.12,5.12,0,0,1,3.877,1.758,5.179,5.179,0,0,1-3.877,8.612Z" transform="translate(-132 -125.3)" />
            <path class="a" d="M618.737,366.7c-.014.042-.028.069-.042.111l-1.481,3.434a.014.014,0,0,1-.014.014Z" transform="translate(-550.023 -333.278)" />
            <path class="a" d="M403.428,159.553l-21.792-9.387a1.667,1.667,0,0,1-.872-2.187l2.907-6.743a1.667,1.667,0,0,1,2.187-.872l21.792,9.387a1.667,1.667,0,0,1,.872,2.188l-2.908,6.743A1.667,1.667,0,0,1,403.428,159.553Z" transform="translate(-346.206 -138.163)" />
            <path class="a" d="M565.306,394.185a3.494,3.494,0,0,1-4.167,1.149l-3.434-1.481a3.182,3.182,0,0,1-.3-.152l3.752,1.62A3.47,3.47,0,0,0,565.306,394.185Z" transform="translate(-498.503 -356.54)" />
            <path class="a" d="M608.761,623.281l-3.447-1.468a.014.014,0,0,1-.014-.014Z" transform="translate(-539.771 -553.059)" />
            <path class="a" d="M716.676,407.27l9.29-21.834a1.657,1.657,0,0,1,2.174-.872l6.743,2.866a1.657,1.657,0,0,1,.872,2.174l-9.29,21.834a1.656,1.656,0,0,1-2.174.872l-6.743-2.866A1.668,1.668,0,0,1,716.676,407.27Z" transform="translate(-635.613 -348.553)" />
            <path class="a" d="M597,616.1l.028.028c0-.014-.014-.014-.028-.028Z" transform="translate(-532.62 -548.148)" />
            <path class="a" d="M597.2,616.2a.839.839,0,0,0,.111.111A.839.839,0,0,1,597.2,616.2Z" transform="translate(-532.792 -548.234)" />
            <path class="a" d="M590.87,569.338a1.2,1.2,0,0,0,.125.138,3.459,3.459,0,0,1-.692-3.738l1.468-3.448a2.908,2.908,0,0,1,.152-.291l-1.592,3.752a3.515,3.515,0,0,0-.277,1.537.206.206,0,0,0,.014.1.3.3,0,0,0,.014.111v.014c.014.055.014.125.028.18s.014.111.028.166a.2.2,0,0,0,.028.083c.014.055.028.1.042.138a.786.786,0,0,0,.055.166c0,.028.014.042.028.069a.513.513,0,0,0,.069.152c.028.055.042.1.069.152a.351.351,0,0,0,.055.1c0,.014.014.028.014.042a.8.8,0,0,0,.069.111.247.247,0,0,0,.069.1.84.84,0,0,0,.1.139c.028.028.042.069.069.1A.192.192,0,0,0,590.87,569.338Z" transform="translate(-526.615 -501.538)" />
            <path class="a" d="M598.266,617.252c-.055-.055-.111-.1-.166-.152A1.963,1.963,0,0,0,598.266,617.252Z" transform="translate(-533.568 -549.01)" />
            <path class="a" d="M366.5,610.9l-1.5,3.558c.014-.028.028-.069.042-.1l1.454-3.448Z" transform="translate(-332.741 -543.668)" />
            <path class="a" d="M416.789,721.977l21.875,9.193a1.658,1.658,0,0,1,.886,2.174l-2.838,6.756a1.658,1.658,0,0,1-2.174.886l-21.875-9.193a1.658,1.658,0,0,1-.886-2.174l2.838-6.756A1.653,1.653,0,0,1,416.789,721.977Z" transform="translate(-372.928 -639.253)" />
            <path class="a" d="M388.46,597.415l-3.752-1.578a3.475,3.475,0,0,0-3.807.776,3.453,3.453,0,0,1,3.821-.789l3.447,1.454A1.416,1.416,0,0,1,388.46,597.415Z" transform="translate(-346.439 -530.446)" />
            <path class="a" d="M363.3,372.1l-3.6-1.5a.491.491,0,0,1,.125.055l3.461,1.44C363.3,372.081,363.3,372.081,363.3,372.1Z" transform="translate(-328.175 -336.638)" />
            <path class="a" d="M155.467,423.1l-9.1,21.917a1.671,1.671,0,0,1-2.174.9l-6.77-2.811a1.671,1.671,0,0,1-.9-2.174l9.1-21.9a1.671,1.671,0,0,1,2.174-.9l6.77,2.811A1.633,1.633,0,0,1,155.467,423.1Z" transform="translate(-135.793 -377.477)" />
            <g transform="translate(63.434 1.066)">
                <path class="a" d="M619.052,133a9.59,9.59,0,0,0-9.581,9.567,9.434,9.434,0,0,0,1.551,5.206L592.04,192.4l-1.592,3.752a3.519,3.519,0,0,0-.277,1.537.235.235,0,0,0,.014.1.3.3,0,0,0,.014.111v.014c.014.055.014.125.028.18s.014.111.028.166a.2.2,0,0,0,.028.083c.014.055.028.1.042.138a.776.776,0,0,0,.055.166c0,.028.014.042.028.069a.512.512,0,0,0,.069.152c.028.055.042.1.069.152a.347.347,0,0,0,.055.1c0,.014.014.028.014.042a.773.773,0,0,0,.069.111.25.25,0,0,0,.069.1.842.842,0,0,0,.1.138c.028.028.042.069.069.1a1.181,1.181,0,0,1,.111.138c.028.028.042.055.069.083l.028.028.028.028.014.014a2.881,2.881,0,0,0,.3.277h0l.166.125a3.149,3.149,0,0,0,.665.374l3.461,1.481.166.069,14.911,6.341a3.459,3.459,0,0,0,4.527-1.828l1.468-3.447a3.464,3.464,0,0,0-1.828-4.527L603.116,193.7l17.75-41.715A9.573,9.573,0,0,0,619.052,133Zm3.78,13.111a5.181,5.181,0,0,1-8.958-3.544,2.251,2.251,0,0,1,.014-.3h0a5.182,5.182,0,1,1,8.944,3.849Z" transform="translate(-590.167 -133)" />
            </g>
            <g transform="translate(0 27.481)">
                <path class="a" d="M168.011,332.29a3.12,3.12,0,0,0-.872-.526l-3.6-1.5-.042-.014-14.967-6.2a3.453,3.453,0,0,0-4.514,1.869l-1.44,3.461a3.453,3.453,0,0,0,1.869,4.514l11.935,4.957-17.5,42.172a9.6,9.6,0,1,0,10.2,3.254l18.345-44.235a2.766,2.766,0,0,0,.138-.291l1.44-3.461A3.507,3.507,0,0,0,168.011,332.29ZM141.581,395.4a5.178,5.178,0,1,1,5.15-5.718h0c.014.18.028.36.028.54A5.188,5.188,0,0,1,141.581,395.4Z" transform="translate(-132 -323.787)" />
            </g>
            <g transform="translate(25.692 65.127)">
                <path class="a" d="M383.671,615.161a9.655,9.655,0,0,0-4.777,1.274l-45-18.9-3.752-1.578a3.475,3.475,0,0,0-3.807.775,3.334,3.334,0,0,0-.706,1.066l-1.5,3.558-6.3,15.008a3.472,3.472,0,0,0,1.841,4.527l3.448,1.454a3.472,3.472,0,0,0,4.527-1.842l5.012-11.921,41.522,17.445a9.576,9.576,0,1,0,9.484-10.869Zm0,14.759a5.135,5.135,0,0,1-3.9-1.786h0a5.171,5.171,0,0,1,3.9-8.57,4.9,4.9,0,0,1,.775.055,5.179,5.179,0,0,1-.775,10.3Z" transform="translate(-317.57 -595.694)" />
            </g>
        </g>
    </g>
</svg>