<svg id="Layer_1" data-name="Layer 1" xmlns="http://www.w3.org/2000/svg" viewBox="0 0 841.89 595.28">
    <title>Arrows_Black</title>
    <path fill="currentColor" d="M501,41.28c18,18,36,36,54.28,54.25-2.19,1.67-4,3.06-5.84,4.43-28.58,21.35-56.08,44-81.75,68.77-19.08,18.42-37.39,37.5-53.35,58.54h0C374.34,142.92,231,47.61,231,47.61l-35.33,52.67C329.44,191,364.81,255.89,372.92,290.9v36.62c-.16,3.28-.24,6.58-.2,9.93.88,71.93.28,143.88.28,215.83h64q0-109.74-.08-219.47a75.86,75.86,0,0,1,6.69-31.45c8.33-18.77,20.26-35.18,33.51-50.66,35.75-41.81,77.88-76.5,122.07-108.87a12.82,12.82,0,0,1,2.38-1.06L661,201.28v-160Z" />
</svg>