<svg id="Layer_1" data-name="Layer 1" xmlns="http://www.w3.org/2000/svg" viewBox="0 0 841.89 595.28">
    <path fill="currentColor" d="M166,287.28c1.29-9,2.24-18.13,3.94-27.09,12.13-63.94,45.41-114.21,99.18-150.55,42.23-28.54,89.34-40.7,140.16-38.13,11.42.58,22.77,2.55,34.84,4-1.61,7.76-3.05,14.67-4.6,22.16-6.84-1-13.49-2.14-20.19-2.78-12.93-1.24-25.88-2.8-38.73.79-14.72,4.11-26.76,12.53-37.24,23.32-17.58,18.1-29.2,39.84-38.49,63.69,29.88,8.1,60,11.45,90.82,11.79v22c-33.2.43-65.65-4.12-97.52-12.35-6.57,14.57-15.05,69.21-13.28,85.92H407.55v95.94c29.71,1.06,58.52,4.76,87.2,12.51,6.12-19.56,9.5-39.47,11.86-60.05l23.46,2.34c-4,19.57-7.94,38.59-11.88,57.6-1.53,7.38-3.34,6,4.78,9.49,13.09,5.67,26,11.83,39.42,18,19.55-25.84,32.32-55.3,38.57-88.18l22,3.84c-8.33,45-27.35,84.29-58.63,117.07C515.42,509.84,455,533.92,384.37,531c-101-4.16-190-78.81-212.11-177.45-2.55-11.33-3.58-23-5.35-34.5-.19-1.28-.6-2.53-.91-3.79ZM384.79,386v-73.3H284.55a328.69,328.69,0,0,0,13.28,85.84C326.67,390.8,355.44,387.09,384.79,386ZM230.14,176.53c-24.88,33.5-38.79,71.09-41.27,113.21h73a384.59,384.59,0,0,1,13.67-92ZM188.8,312.69q4,63.56,41.39,113.22l45.39-21.27c-8.5-29.83-12.67-60.53-13.74-91.95Zm196.09,95.7c-27.27,1-53.66,4.29-79.92,11.4,8,20.64,17.83,39.57,31.75,56.21,9.83,11.76,21.13,21.71,35.41,27.76,4,1.69,8.23,2.72,12.76,4.18Zm23,0v98.76c33.72-4.46,66.42-47.74,79.39-87.48C461.49,412.54,435.2,409.38,407.89,408.37Zm139.71,35-38.13-17.39c-10,25.69-22.42,48.84-39.92,69.14C499.49,484.29,525.11,467.16,547.6,443.33ZM321.79,494.56c-17.39-20.08-29.36-43.23-39.25-68.4L245,443.37C267.34,466.66,292.45,483.66,321.79,494.56ZM282.66,176.21c9.76-25.56,22-48.23,39-68.33-29.25,11-54.39,27.83-76.65,51.13Z" />
    <path fill="currentColor" d="M678,199.28c-1.3,6.66-2.31,13.39-4,20-13.51,54-62,92.48-117.63,93-40.48.35-81,.09-121.46.09-1.14,0-2.28-.11-3.86-.19-.11-1.76-.3-3.35-.3-4.95,0-39.15-.17-78.31,0-117.46.31-60.17,39.43-108.75,97.81-121.85C596.08,52.71,665.27,99.53,676,167.57c.57,3.58,1.31,7.14,2,10.71ZM453,289.65a31.1,31.1,0,0,0,3.12.38c33.66,0,67.35.77,101-.25,54.88-1.65,97.08-44.87,98.25-99.24,1.4-64.95-59.25-114.76-122.52-100.63-47.18,10.54-79.65,51.08-79.81,99.86-.1,30.66,0,61.32,0,92Z" />
    <path fill="currentColor" d="M522.47,191.24c-16.72-21.68-9.65-45.56,4.31-57.5a41,41,0,0,1,53.17.1c12.83,11.07,21.8,34.26,4.13,57.43,21.06,14.06,31.09,33.74,29.63,59.48H591.26c1.23-15.27-2.7-28.69-15.59-38.17a36.11,36.11,0,0,0-23.4-7.25,37.6,37.6,0,0,0-28.54,14.3c-7.45,9-8.73,19.8-8.4,31.16h-22C491.22,225.09,501.41,205.47,522.47,191.24Zm49-26.63a18.47,18.47,0,0,0-18-18.25,18.29,18.29,0,0,0-.36,36.58A18.37,18.37,0,0,0,571.51,164.61Z" />
</svg>