<svg id="Layer_1" data-name="Layer 1" xmlns="http://www.w3.org/2000/svg" viewBox="0 0 841.89 595.28">
    <title>Map_Black</title>
    <path fill="currentColor" d="M421.22,508.81,332,478.16V89.69L467,133.8V325.28a9,9,0,0,0,18,0V134.17L625,89.59V321.28a9,9,0,0,0,18,0v-244a9,9,0,0,0-11.73-8.58L476.53,118,325.8,68.72h0l-.36-.1L325,68.5l-.35-.07-.5-.08-.31,0-.66,0H323a7.81,7.81,0,0,0-.83,0l-.25,0c-.19,0-.37.05-.55.09l-.36.07-.43.11-.38.12-.12,0-152,53a9,9,0,0,0-6,8.5v408a9,9,0,0,0,9,9,9.28,9.28,0,0,0,2.93-.49l151.07-52,90.38,31a9,9,0,0,0,5.84-17ZM314,479.54,180,525.66v-389L314,90Z" />
    <path fill="currentColor" d="M652.32,544.87l-66-65.18a84.86,84.86,0,1,0-13,12.43l66.39,65.56a9,9,0,0,0,12.64-12.81ZM455,425a66.73,66.73,0,1,1,66.73,66.74A66.81,66.81,0,0,1,455,425Z" />
</svg>