<svg version="1.1" id="Layer_1" xmlns="http://www.w3.org/2000/svg" xmlns:xlink="http://www.w3.org/1999/xlink" x="0px" y="0px"
	 viewBox="0 0 841.9 595.3" style="enable-background:new 0 0 841.9 595.3;" xml:space="preserve">
	<g>
		<path fill="currentColor" d="M614,235.9c-1.3,4.6-2.9,14.2-6.8,22.6c-8,17.5-17.1,34.5-25.9,51.7c-4.5,8.9-9.1,17.8-14,26.4c-1.1,2-3.7,3.9-5.9,4.2
			c-1.6,0.2-4.3-1.8-5.3-3.6c-9.9-18.1-19.6-36.3-29.1-54.6c-7.5-14.5-14.9-29.1-17.3-45.5c-4.8-32.8,25.9-62.8,58.7-57.6
			C595,183.9,613.9,205.3,614,235.9z M561.4,261.5c16.6,0.1,29.9-12.9,30.1-29.5c0.3-16.6-13.3-30.3-29.9-30.3
			c-16.5,0-29.8,13.3-29.8,29.8C531.7,248.2,544.8,261.4,561.4,261.5z"/>
		<path fill="currentColor" d="M281.3,253.6c35.9,0,61,33,51,66.7c-3.9,13-9.8,25.4-15.8,37.6c-9,18.2-18.9,35.9-28.6,53.7c-0.9,1.7-3.4,3.5-5.3,3.6
			c-1.8,0.1-4.6-1.5-5.5-3.2c-11.4-21.1-23-42-33.4-63.5c-5.5-11.3-10.1-23.3-12.7-35.5c-5.7-27.1,15.8-55.2,43.4-58.7
			C277.1,254,279.7,253.8,281.3,253.6z M312.2,305.9c0-16.6-13.2-29.8-29.8-29.8c-16.6,0-29.9,13.1-30,29.7
			c-0.1,16.6,13.5,30.3,30.1,30.2C299.1,335.8,312.2,322.5,312.2,305.9z"/>
		<path fill="currentColor" d="M549.4,337.8c2.1,5.4,6,9.8,13.9,9.6c-10.7,19.6-22.1,37.6-44.9,44c-12.6,3.6-25,1.8-36.7-3c-12.5-5.3-24.6-11.7-36.7-17.9
			c-13-6.7-25.6-14.2-38.8-20.6c-10.3-5-21.5-7.3-33-5.4c-13.3,2.2-23.1,10.1-30.9,20.5c-5.3,7-9.9,14.6-14,22.4
			c-6.6,12.4-16.5,21.2-28.7,27.6c-2,1-4.3,1.6-7.3,2.6c0.8-2,1.2-3.4,1.8-4.6c11.5-20.1,22.2-40.6,34.7-60
			c8.8-13.7,21.7-23.3,38.3-27c13.2-3,26.1-1.1,38.1,4.1c13,5.6,25.4,12.3,38,18.8c13.1,6.8,26,14.2,39.2,20.8
			c4.7,2.3,10,3.6,15.2,4.5c12.9,2.2,24.4-1.5,33-11.3C537.5,355.1,543.2,346.3,549.4,337.8z"/>
	</g>
</svg>
