<svg version="1.1" id="Layer_1" xmlns="http://www.w3.org/2000/svg" xmlns:xlink="http://www.w3.org/1999/xlink" x="0px" y="0px"
	 viewBox="0 0 512 512" style="enable-background:new 0 0 512 512;" xml:space="preserve">
<style type="text/css">
	.st0{clip-path:url(#SVGID_2_);fill:currentColor;}
	.st1{clip-path:url(#SVGID_2_);}
	.st2{clip-path:url(#SVGID_4_);fill:currentColor;}
	.st3{clip-path:url(#SVGID_4_);}
	.st4{clip-path:url(#SVGID_6_);fill:currentColor;}
	.st5{clip-path:url(#SVGID_8_);fill:currentColor;}
	.st6{clip-path:url(#SVGID_10_);fill:currentColor;}
	.st7{clip-path:url(#SVGID_12_);fill:currentColor;}
	.st8{clip-path:url(#SVGID_14_);fill:currentColor;}
	.st9{clip-path:url(#SVGID_16_);fill:currentColor;}
	.st10{clip-path:url(#SVGID_18_);fill:#3B97D3;}
	.st11{clip-path:url(#SVGID_20_);fill:currentColor;}
	.st12{clip-path:url(#SVGID_22_);fill:currentColor;}
	.st13{clip-path:url(#SVGID_24_);fill:currentColor;}
	.st14{clip-path:url(#SVGID_26_);fill:currentColor;}
	.st15{clip-path:url(#SVGID_28_);fill:currentColor;}
	.st16{clip-path:url(#SVGID_30_);fill:currentColor;}
	.st17{clip-path:url(#SVGID_32_);fill:currentColor;}
</style>
<g>
	<defs>
		<rect id="SVGID_1_" width="512" height="512"/>
	</defs>
	<clipPath id="SVGID_2_">
		<use xlink:href="#SVGID_1_"  style="overflow:visible;"/>
	</clipPath>
	<path class="st0" d="M257.6,39.6c-35.2,0-63.6,28.4-63.6,63.6s28.4,63.6,63.6,63.6s63.6-28.4,63.6-63.6S292.8,39.6,257.6,39.6z
		 M257.6,55.6c26.4,0,47.6,21.2,47.6,47.6c0,26.4-21.2,47.6-47.6,47.6S210,129.6,210,103.2C210,76.8,231.6,55.6,257.6,55.6"/>
	<g class="st1">
		<defs>
			<rect id="SVGID_3_" width="512" height="512"/>
		</defs>
		<clipPath id="SVGID_4_">
			<use xlink:href="#SVGID_3_"  style="overflow:visible;"/>
		</clipPath>
		<path class="st2" d="M116,228.4c-25.2,0-45.2,20.4-45.2,45.2s20,45.6,45.2,45.6s45.2-20.4,45.2-45.2S141.2,228.4,116,228.4z
			 M116,244.4c16,0,29.2,13.2,29.2,29.2S132,303.2,116,303.2S86.8,290,86.8,274S100,244.4,116,244.4"/>
		<g class="st3">
			<defs>
				<rect id="SVGID_5_" width="512" height="512"/>
			</defs>
			<clipPath id="SVGID_6_">
				<use xlink:href="#SVGID_5_"  style="overflow:visible;"/>
			</clipPath>
			<path class="st4" d="M260,174.4c0,0-2.8,0.4-4,0.4s0,0-4-0.4V238c4,0,8,0.4,8,0.8V174.4z"/>
		</g>
	</g>
</g>
<g>
	<defs>
		<rect id="SVGID_7_" width="512" height="512"/>
	</defs>
	<clipPath id="SVGID_8_">
		<use xlink:href="#SVGID_7_"  style="overflow:visible;"/>
	</clipPath>
	<path class="st5" d="M257.6,134.8c-17.6,0-31.6-14-31.6-31.6c0-17.6,14-31.6,31.6-31.6s31.6,14,31.6,31.6
		C289.2,120.8,275.2,134.8,257.6,134.8z M257.6,63.6c-22,0-39.6,17.6-39.6,39.6s17.6,39.6,39.6,39.6s39.6-17.6,39.6-39.6
		C297.2,81.2,279.6,63.6,257.6,63.6z"/>
</g>
<g>
	<defs>
		<rect id="SVGID_9_" width="512" height="512"/>
	</defs>
	<clipPath id="SVGID_10_">
		<use xlink:href="#SVGID_9_"  style="overflow:visible;"/>
	</clipPath>
	<path class="st6" d="M70.8,407.2c-18.4,0-33.6,15.2-33.6,33.6s15.2,33.6,33.6,33.6s33.6-15.2,33.6-33.6
		C104.4,422,89.2,407.2,70.8,407.2z M70.8,423.2c9.6,0,17.6,8,17.6,17.6s-8,17.6-17.6,17.6s-17.6-8-17.6-17.6S61.2,423.2,70.8,423.2
		"/>
</g>
<g>
	<defs>
		<rect id="SVGID_11_" width="512" height="512"/>
	</defs>
	<clipPath id="SVGID_12_">
		<use xlink:href="#SVGID_11_"  style="overflow:visible;"/>
	</clipPath>
	<path class="st7" d="M194.4,407.2c-18.4,0-33.6,15.2-33.6,33.6s15.2,33.6,33.6,33.6s33.6-15.2,33.6-33.6
		C228,422,212.8,407.2,194.4,407.2z M194.4,423.2c9.6,0,17.6,8,17.6,17.6s-8,17.6-17.6,17.6s-17.6-8-17.6-17.6
		S184.4,423.2,194.4,423.2"/>
</g>
<g>
	<defs>
		<rect id="SVGID_13_" width="512" height="512"/>
	</defs>
	<clipPath id="SVGID_14_">
		<use xlink:href="#SVGID_13_"  style="overflow:visible;"/>
	</clipPath>
	<path class="st8" d="M317.6,407.2c-18.4,0-33.6,15.2-33.6,33.6s15.2,33.6,33.6,33.6s33.6-15.2,33.6-33.6
		C351.2,422,336.4,407.2,317.6,407.2z M317.6,423.2c9.6,0,17.6,8,17.6,17.6s-8,17.6-17.6,17.6s-17.6-8-17.6-17.6
		S308,423.2,317.6,423.2"/>
</g>
<g>
	<defs>
		<rect id="SVGID_15_" width="512" height="512"/>
	</defs>
	<clipPath id="SVGID_16_">
		<use xlink:href="#SVGID_15_"  style="overflow:visible;"/>
	</clipPath>
	<path class="st9" d="M441.2,407.2c-18.4,0-33.6,15.2-33.6,33.6s15.2,33.6,33.6,33.6s33.6-15.2,33.6-33.6
		C474.8,422,460,407.2,441.2,407.2z M441.2,423.2c9.6,0,17.6,8,17.6,17.6s-8,17.6-17.6,17.6s-17.6-8-17.6-17.6
		S431.6,423.2,441.2,423.2"/>
</g>
<g>
	<defs>
		<rect id="SVGID_17_" width="512" height="512"/>
	</defs>
	<clipPath id="SVGID_18_">
		<use xlink:href="#SVGID_17_"  style="overflow:visible;"/>
	</clipPath>
	<path class="st10" d="M256,228.4c-25.2,0-45.2,20.4-45.2,45.2s20,45.6,45.2,45.6s45.2-20.4,45.2-45.2S281.2,228.4,256,228.4z
		 M256,244.4c16,0,29.2,13.2,29.2,29.2S272,303.2,256,303.2S226.8,290,226.8,274S240,244.4,256,244.4"/>
</g>
<g>
	<defs>
		<rect id="SVGID_19_" width="512" height="512"/>
	</defs>
	<clipPath id="SVGID_20_">
		<use xlink:href="#SVGID_19_"  style="overflow:visible;"/>
	</clipPath>
	<path class="st11" d="M374.8,241.2L306,155.6c-2,2-4,3.6-6,5.2l68.4,84.8C370.4,244,372.4,242.4,374.8,241.2z"/>
</g>
<g>
	<defs>
		<rect id="SVGID_21_" width="512" height="512"/>
	</defs>
	<clipPath id="SVGID_22_">
		<use xlink:href="#SVGID_21_"  style="overflow:visible;"/>
	</clipPath>
	<path class="st12" d="M396,228.4c-25.2,0-45.2,20.4-45.2,45.2s20,45.6,45.2,45.6s45.2-20.4,45.2-45.2S421.2,228.4,396,228.4z
		 M396,244.4c16,0,29.2,13.2,29.2,29.2S412,302.8,396,302.8s-29.2-13.2-29.2-29.2S380,244.4,396,244.4"/>
</g>
<g>
	<defs>
		<rect id="SVGID_23_" width="512" height="512"/>
	</defs>
	<clipPath id="SVGID_24_">
		<use xlink:href="#SVGID_23_"  style="overflow:visible;"/>
	</clipPath>
	<path class="st13" d="M140.8,250l74-89.6c-2-1.6-4-3.2-6-5.2L135.6,244C137.2,245.6,139.2,247.6,140.8,250z"/>
</g>
<g>
	<defs>
		<rect id="SVGID_25_" width="512" height="512"/>
	</defs>
	<clipPath id="SVGID_26_">
		<use xlink:href="#SVGID_25_"  style="overflow:visible;"/>
	</clipPath>
	<path class="st14" d="M98.4,324l-25.6,94.4c2.8,0.4,5.2,0.8,7.6,2L106,326C103.2,325.6,100.8,324.8,98.4,324z"/>
</g>
<g>
	<defs>
		<rect id="SVGID_27_" width="512" height="512"/>
	</defs>
	<clipPath id="SVGID_28_">
		<use xlink:href="#SVGID_27_"  style="overflow:visible;"/>
	</clipPath>
	<path class="st15" d="M213.6,433.6l140-118.8c-1.6-2-3.2-4-4.4-6.8L209.6,426.4C211.2,428.8,212.4,431.2,213.6,433.6z"/>
</g>
<g>
	<defs>
		<rect id="SVGID_29_" width="512" height="512"/>
	</defs>
	<clipPath id="SVGID_30_">
		<use xlink:href="#SVGID_29_"  style="overflow:visible;"/>
	</clipPath>
	<path class="st16" d="M332.4,419.2l44-93.6c-2.8-0.4-5.6-1.2-8-2l-43.2,92C327.6,416.8,330,418,332.4,419.2z"/>
</g>
<g>
	<defs>
		<rect id="SVGID_31_" width="512" height="512"/>
	</defs>
	<clipPath id="SVGID_32_">
		<use xlink:href="#SVGID_31_"  style="overflow:visible;"/>
	</clipPath>
	<path class="st17" d="M439.2,418.4L413.6,324c-2.4,0.8-5.2,1.6-7.6,2l26,95.6C434.4,420,436.8,419.2,439.2,418.4z"/>
</g>
</svg>
