<svg id="Layer_1" data-name="Layer 1" xmlns="http://www.w3.org/2000/svg" xmlns:xlink="http://www.w3.org/1999/xlink" viewBox="0 0 512 512">
    <defs>
        <style>.cls-1{fill:none;}.cls-2{clip-path:url(#clip-path);}.cls-3{fill:currentColor;}.cls-4{fill:#2c3e50;}</style>
        <clipPath id="clip-path">
            <rect class="cls-1" width="512" height="512" />
        </clipPath>
    </defs>
    <g class="cls-2">
        <path class="cls-3" d="M257.6,39.6a63.6,63.6,0,1,0,63.6,63.6A63.5,63.5,0,0,0,257.6,39.6Zm0,16A47.6,47.6,0,1,1,210,103.2a47.46,47.46,0,0,1,47.6-47.6" />
    </g>
    <g class="cls-2">
        <path class="cls-3" d="M257.6,134.8a31.6,31.6,0,1,1,31.6-31.6A31.41,31.41,0,0,1,257.6,134.8Zm0-71.2a39.6,39.6,0,1,0,39.6,39.6A39.44,39.44,0,0,0,257.6,63.6Z" />
    </g>
    <g class="cls-2">
        <path class="cls-4" d="M70.8,407.2a33.6,33.6,0,1,0,33.6,33.6A33.8,33.8,0,0,0,70.8,407.2Zm0,16a17.6,17.6,0,1,1-17.6,17.6,17.76,17.76,0,0,1,17.6-17.6" />
    </g>
    <g class="cls-2">
        <path class="cls-4" d="M194.4,407.2A33.6,33.6,0,1,0,228,440.8,33.8,33.8,0,0,0,194.4,407.2Zm0,16a17.6,17.6,0,1,1-17.6,17.6,17.5,17.5,0,0,1,17.6-17.6" />
    </g>
    <g class="cls-2">
        <path class="cls-4" d="M317.6,407.2a33.6,33.6,0,1,0,33.6,33.6A33.29,33.29,0,0,0,317.6,407.2Zm0,16A17.6,17.6,0,1,1,300,440.8a17.76,17.76,0,0,1,17.6-17.6" />
    </g>
    <g class="cls-2">
        <path class="cls-4" d="M441.2,407.2a33.6,33.6,0,1,0,33.6,33.6A33.29,33.29,0,0,0,441.2,407.2Zm0,16a17.6,17.6,0,1,1-17.6,17.6,17.76,17.76,0,0,1,17.6-17.6" />
    </g>
    <g class="cls-2">
        <path class="cls-4" d="M256,228.4a45.15,45.15,0,0,0-45.2,45.2c0,24.8,20,45.6,45.2,45.6A45.15,45.15,0,0,0,301.2,274C301.2,249.2,281.2,228.4,256,228.4Zm0,16a29.36,29.36,0,0,1,29.2,29.2c0,16-13.2,29.6-29.2,29.6A29.36,29.36,0,0,1,226.8,274c0-16,13.2-29.6,29.2-29.6" />
    </g>
    <g class="cls-2">
        <path class="cls-4" d="M374.8,241.2,306,155.6a69.53,69.53,0,0,1-6,5.2l68.4,84.8A36.25,36.25,0,0,1,374.8,241.2Z" />
    </g>
    <g class="cls-2">
        <path class="cls-4" d="M396,228.4a45.15,45.15,0,0,0-45.2,45.2c0,24.8,20,45.6,45.2,45.6A45.15,45.15,0,0,0,441.2,274C441.2,249.2,421.2,228.4,396,228.4Zm0,16a29.2,29.2,0,1,1-29.2,29.2A29.36,29.36,0,0,1,396,244.4" />
    </g>
    <g class="cls-2">
        <path class="cls-4" d="M140.8,250l74-89.6a69.53,69.53,0,0,1-6-5.2L135.6,244A40.07,40.07,0,0,1,140.8,250Z" />
    </g>
    <g class="cls-2">
        <path class="cls-4" d="M98.4,324,72.8,418.4a23.67,23.67,0,0,1,7.6,2L106,326A42.19,42.19,0,0,1,98.4,324Z" />
    </g>
    <g class="cls-2">
        <path class="cls-4" d="M116,228.4a45.15,45.15,0,0,0-45.2,45.2c0,24.8,20,45.6,45.2,45.6A45.15,45.15,0,0,0,161.2,274C161.2,249.2,141.2,228.4,116,228.4Zm0,16a29.36,29.36,0,0,1,29.2,29.2c0,16-13.2,29.6-29.2,29.6A29.36,29.36,0,0,1,86.8,274c0-16,13.2-29.6,29.2-29.6" />
    </g>
    <g class="cls-2">
        <path class="cls-4" d="M260,174.4s-2.8.4-4,.4,0,0-4-.4V238c4,0,8,.4,8,.8Z" />
    </g>
    <g class="cls-2">
        <path class="cls-4" d="M213.6,433.6l140-118.8a28.48,28.48,0,0,1-4.4-6.8L209.6,426.4A64.72,64.72,0,0,1,213.6,433.6Z" />
    </g>
    <g class="cls-2">
        <path class="cls-4" d="M332.4,419.2l44-93.6a46.79,46.79,0,0,1-8-2l-43.2,92Z" />
    </g>
    <g class="cls-2">
        <path class="cls-4" d="M439.2,418.4,413.6,324a53.29,53.29,0,0,1-7.6,2l26,95.6A28.42,28.42,0,0,1,439.2,418.4Z" />
    </g>
</svg>