<svg id="Layer_1" data-name="Layer 1" xmlns="http://www.w3.org/2000/svg" viewBox="0 0 512 512">
    <defs />
    <path fill="currentColor" d="M160.84 332.32l42-118.91c11.26-31.92 39-43.3 61.18-43.3s49.92 11.37 61.19 43.3l39.05 110.65A356.38 356.38 0 00472.78 480H384v-8h-16v8h-96v-8h-16v8h-88v-8h-16v8H61.72a357.64 357.64 0 0099.12-147.68zm218.5-13.59l-39.06-110.65a80.89 80.89 0 00-152.56 0L145.75 327A341.48 341.48 0 0140 477.58V16H24v472a8 8 0 008 8h472v-16h-5.25a340.55 340.55 0 01-119.41-161.27z" />
    <path fill="currentColor" d="M256 216h16v16h-16zM256 248h16v16h-16zM256 280h16v16h-16zM256 312h16v16h-16zM256 344h16v16h-16zM256 376h16v16h-16zM256 408h16v16h-16zM256 440h16v16h-16zM152 376h16v16h-16zM152 408h16v16h-16zM152 440h16v16h-16zM256 184h16v16h-16zM368 376h16v16h-16zM368 408h16v16h-16zM368 440h16v16h-16z" />
</svg>