<svg xmlns="http://www.w3.org/2000/svg" viewBox="0 0 512 512">
	<defs />
	<path fill="currentColor" d="M497.9 485.2h-3.4l-.3-.2c-42.7-31.6-74.7-74.7-92.3-124.6l-30.2-85.6c-9-25.5-32.2-41.9-59.2-41.9-10.2 0-19.8 2.3-28.4 6.6-12.5-18.1-33-29.1-56-29.1-29.3 0-54.6 17.9-64.3 45.5l-35.4 100.3c-17.6 49.8-48.4 93.6-89.2 127v-462h-16v472c0 4.4 3.6 8 8 8h472v-16h-5.3zm-440.5 0c37.8-33.8 66.6-76.5 83.6-124.5l35.4-100.3c9.5-26.9 32.9-36.5 51.6-36.5 15.1 0 33.3 6.3 44.7 22.9-8.7 7.1-15.6 16.7-19.6 28l-4.8 13.7c-6.7-3.1-14.2-4.8-22-4.8-22.1 0-41.2 13.5-48.6 34.4L152 390.9c-12.6 35.7-34.8 67.2-64.1 91.3l-.7.6v2.4H57.4zm48 0c26.9-24.6 47.6-55.6 59.6-89.8l25.7-72.8c6.6-18.6 22.7-25.2 35.6-25.2 5.6 0 11.7 1.2 17.4 4.1l-23 65.2c-16 45.4-44.3 85.7-81.7 116.4l-.1.1v2h-33.5zm149.7 0h-98.8c34.7-31.1 61.1-70.5 76.5-114.2l21.6-61.2c3 3.4 5.6 7.7 7.4 12.8l23.9 67.7c13 36.8 35.6 69.6 65.3 94.8h-95.9zm135.6 0h-17.3l-2.2-1.6c-33.5-24.8-58.6-58.6-72.4-97.8L274.9 318c-3.2-9-8.6-16.7-15.4-22.4l5.8-16.6c3.1-8.9 7.9-15.7 13.5-20.7.3.7.5 1.4.8 2.1l32.9 93.3c18.2 51.6 49.7 96.7 91.5 131.5h-13.3zm35.3 0c-46.6-34.4-81.4-81.4-100.7-136l-32.9-93.3c-.6-1.8-1.3-3.5-2.1-5.2 7.3-3.5 15.1-5 22.1-5 17.1 0 38.4 8.8 47.1 33.3l30.2 85.6c16.6 47 45.6 88.7 83.8 120.6H426z" />
</svg>