<svg xmlns="http://www.w3.org/2000/svg" width="111.656" height="102.795" viewBox="0 0 111.656 102.795"><defs><style>.a{fill:currentColor;}</style></defs><g transform="translate(-407 654.66)"><g transform="translate(407 -654.66)"><path class="a" d="M60.623,59.418v2.774c0,3.493,1.59,5.117,4.634,5.117H69.1a6.067,6.067,0,0,1,6.1,6.092v3.227c0,3.493-1.583,5.6-5.284,5.6h-4.45c-3.893,0-5.922-1.779-5.922-5.415v-3a4.52,4.52,0,0,0-4.568-4.748H48.342c-3.314,0-4.12,2.239-4.12,4.748v5.916c0,3.136,1.881,4.21,4.3,4.21H52.6c4.609,0,6.823,2.022,6.823,5.249v2.229c0,3.667,2.086,5.057,5.4,5.057h6.843c3.388,0,5.043-1.788,5.043-4.844v-2.5c0-4.209,2.334-5.553,6.813-5.553H88.24a3.461,3.461,0,0,0,3.794-3.762V71.121c0-2.865-1.612-4.209-4.747-4.209H81.643c-3.368,0-6.388-2.547-6.388-7.254V56.884c0-3.493-1.59-5.117-4.635-5.117H66.781a6.066,6.066,0,0,1-6.1-6.09V42.45c0-3.493,1.585-5.6,5.285-5.6h4.449c3.893,0,5.923,1.779,5.923,5.415v3a4.519,4.519,0,0,0,4.568,4.747h6.625c3.314,0,4.12-2.239,4.12-4.747V39.355c0-3.134-1.881-4.209-4.3-4.209H83.274c-4.609,0-6.823-2.022-6.823-5.249V27.785c0-3.666-1.984-5.175-5.3-5.175H64.2c-3.388,0-5.043,1.788-5.043,4.845v2.5c0,4.209-2.334,5.553-6.813,5.553H47.635a3.461,3.461,0,0,0-3.793,3.762v8.688c0,2.867,1.611,4.21,4.748,4.21h5.642C57.6,52.164,60.623,54.711,60.623,59.418Z" transform="translate(4.116 -8.31)"/><path class="a" d="M88.506,58.3a4.9,4.9,0,0,0,4.9-4.9V49.655a4.9,4.9,0,0,0-4.9-4.9H84.764a4.9,4.9,0,0,0-4.9,4.9V53.4a4.9,4.9,0,0,0,4.9,4.9Z" transform="translate(18.249 0.377)"/><path class="a" d="M47.2,39.534h4.188c3.134,0,4.747-1.344,4.747-4.209V32.577c.157-4.447,3.1-6.486,6.374-6.486H66.7c3.137,0,4.748-1.344,4.748-4.209V16.1a3.46,3.46,0,0,0-3.793-3.762H59.722c-2.57,0-3.663,1.19-3.663,3.874V19.6a6.063,6.063,0,0,1-5.808,6.076h-5.84c-2.569,0-3.663,1.19-3.663,3.874v3.492a6.065,6.065,0,0,1-6.1,6.092H30.813c-3.046,0-4.635,1.622-4.635,5.116v4.276c0,4.708-3.019,7.254-6.388,7.254H14.145c-3.134,0-4.747,1.344-4.747,4.209v9.421c0,2.867,1.612,4.209,4.747,4.209h5.645c3.37,0,6.388,1.461,6.388,6.17v3.358c0,3.493,1.59,5.116,4.635,5.116h3.839a6.066,6.066,0,0,1,6.1,6.092v3.535c0,2.683,1.094,3.874,3.663,3.874h5.866l-.029.033a6.061,6.061,0,0,1,5.808,6.076v3.388c0,2.683,1.093,3.874,3.663,3.874h7.928a3.461,3.461,0,0,0,3.794-3.762v-5.78c0-2.867-1.612-4.211-4.747-4.211h-4.19c-3.269,0-6.2-2.029-6.371-6.451V92.073c0-2.867-1.612-4.209-4.747-4.209H47.2c-3.371,0-6.391-2.545-6.391-7.253V78.338c0-3.493,1.591-5.116,4.637-5.116h3.837a6.067,6.067,0,0,0,6.1-6.092V62.27a6.066,6.066,0,0,0-6.1-6.092H45.445c-3.046,0-4.637-1.623-4.637-5.116V46.385C40.808,41.678,43.828,39.534,47.2,39.534Z" transform="translate(-9.398 -12.34)"/></g></g></svg>