<svg data-name="Layer 1" xmlns="http://www.w3.org/2000/svg" viewBox="0 0 841.89 595.28">
    <path fill="currentColor" d="M406 42.28h32c1.29.27 2.56.63 3.86.82 11.85 1.74 23.83 2.83 35.52 5.28C577.05 69.33 657.7 153.62 674.05 253.7c1.55 9.48 2.65 19.05 4 28.58v32c-.29 1.45-.65 2.89-.88 4.35-2.06 13.14-3.32 26.45-6.29 39.38-22.45 97.93-105.55 175.87-204.74 192.36-9.32 1.55-18.72 2.61-28.09 3.91H406c-1.29-.28-2.56-.64-3.86-.83-11.85-1.74-23.83-2.83-35.52-5.28C267 527.24 186.27 442.9 169.94 342.84c-1.54-9.48-2.64-19-3.94-28.56v-32c.29-1.44.64-2.87.86-4.31 1.73-11.68 2.82-23.49 5.24-35C193 143.29 277.44 62.47 377.38 46.23c9.5-1.55 19.08-2.65 28.62-3.95zM635.57 298.6c.32-117.43-95.27-213.35-213-213.73s-213.4 94.71-213.86 212.63c-.46 118.08 94.59 213.73 212.83 214.18 117.86.45 213.71-94.98 214.03-213.08z" />
    <path fill="currentColor" d="M316.72 192.11c16.69 7.37 33.54 14.39 50 22.19 26.14 12.38 52.08 25.2 78 38a146.57 146.57 0 0116.28 9.79 53.89 53.89 0 0112.72 78.4c-19.21 24.82-56 28.35-79.27 7.16a59.29 59.29 0 01-12.32-16.18c-13.33-25.48-26.48-51.06-39-77-9.72-20.19-18.35-40.91-27.46-61.39zm62.67 63.55c8.36 20.88 17.55 39.85 29.08 57.53 4.17 6.39 11.57 8.14 19.21 6.41 8.88-2 14.29-7.76 15.91-16.57 1.36-7.38-.53-14.53-6.93-18.6-17.66-11.23-36.52-20.38-57.27-28.77z" />
</svg>