<svg xmlns="http://www.w3.org/2000/svg" width="116.188" height="98.272" viewBox="0 0 116.188 98.272"><defs><style>.a{fill:currentColor;}</style></defs><g transform="translate(1015.012 622.978)"><g transform="translate(-1015.013 -622.977)"><path class="a" d="M56.045,57.568a3.709,3.709,0,0,0,4.085-.511C74.811,44.291,94.853,40.717,111.7,32.036c2.808-1.4,1.66-4.979-.766-6C101.619,22.334,92.3,18.5,82.854,14.8c-4.6-1.787-9.064-3.7-13.659-5.489-3.447-1.4-7.659-4.085-11.617-3.064s-8.042,3.7-11.745,5.489c-4.468,2.17-8.936,4.34-13.276,6.638C25.024,22.334,17.748,26.8,10.088,30.632a50.639,50.639,0,0,0-6.128-.894c-5.234-.511-5.362,8.042,0,8.3,9.064.638,17.617,3.957,25.915,7.659C38.684,49.525,47.365,53.483,56.045,57.568ZM33.195,23.738q6.128-2.489,12.255-5.362c4.085-1.915,8.553-4.6,12.893-5.872,3.319-1.021,8.3,2.3,11.362,3.574L82.726,21.44c6.511,2.681,12.893,5.362,19.4,7.915C86.811,35.993,70.471,40.206,57.194,50.674c-8.681-4.085-17.361-8.425-26.042-12.51a101.608,101.608,0,0,0-17.617-6.638C20.046,28.717,26.684,26.419,33.195,23.738Z" transform="translate(0.013 -6.022)"/><path class="a" d="M109.738,43.209a132.338,132.338,0,0,0-27.829,7.659A130.9,130.9,0,0,0,69.653,56.1c-2.043,1.021-4.085,2.043-6.128,3.191-1.149.638-2.426,1.532-3.574,2.043-1.532.638-1.915.638-3.574-.128-8.042-3.7-15.574-8.553-23.744-12-7.659-3.191-16.6-6.511-25.021-5.362-2.043.255-1.787,3.447,0,3.957,4.6,1.277,9.191,2.043,13.659,3.7a88.356,88.356,0,0,1,12.255,5.617c4.34,2.3,8.425,4.851,12.638,7.149,3.447,1.915,7.659,5.234,11.745,5.489,4.34.128,8.3-3.064,12-4.979,4.34-2.17,8.936-4.34,13.532-6.128a194.793,194.793,0,0,1,28.34-8.17C116.5,49.464,114.461,42.571,109.738,43.209Z" transform="translate(1.724 4.251)"/><path class="a" d="M109.738,62.209a132.338,132.338,0,0,0-27.829,7.659A130.9,130.9,0,0,0,69.653,75.1c-2.043,1.021-4.085,2.043-6.128,3.191-1.149.638-2.426,1.532-3.574,2.043-1.532.638-1.915.638-3.574-.128-8.042-3.7-15.574-8.553-23.744-12-7.659-3.191-16.6-6.511-25.021-5.362-2.043.255-1.787,3.447,0,3.957,4.6,1.277,9.191,2.043,13.659,3.7a88.356,88.356,0,0,1,12.255,5.617c4.34,2.3,8.425,4.851,12.638,7.149,3.447,1.915,7.659,5.234,11.745,5.489,4.34.128,8.3-3.064,12-4.979,4.34-2.17,8.936-4.34,13.532-6.128a194.794,194.794,0,0,1,28.34-8.17C116.5,68.464,114.461,61.571,109.738,62.209Z" transform="translate(1.724 9.506)"/></g></g></svg>